# xmcd
#
# Track frame offsets:
#	150
#	847
#	15769
#	32006
#	54158
#	70130
#	97451
#
# Disc length: 1477 seconds
#
# Revision: 0
# Processed by: cddbd v1.5.2PL0 Copyright (c) Steve Scherf et al.
# Submitted via: dBpowerAMP V4.0
#
DISCID=4405c307
DTITLE=Soko 18 - Wir haben genug!!! Demo
DYEAR=2006
DGENRE=RAC
TTITLE0=Intro
TTITLE1=Genug
TTITLE2=Schwarz-Weiss-Rot
TTITLE3=Revolution
TTITLE4=Verraeter
TTITLE5=Goetterbuendnis
TTITLE6=Ehre dem deutschen Landser
EXTD=
EXTT0=
EXTT1=
EXTT2=
EXTT3=
EXTT4=
EXTT5=
EXTT6=
PLAYORDER=
